<?xml version="1.0" standalone="no"?>
<!DOCTYPE svg PUBLIC "-//W3C//DTD SVG 20010904//EN"
 "http://www.w3.org/TR/2001/REC-SVG-20010904/DTD/svg10.dtd">
<svg version="1.0" xmlns="http://www.w3.org/2000/svg"
 width="861.000000pt" height="405.000000pt" viewBox="0 0 861.000000 405.000000"
 preserveAspectRatio="xMidYMid meet">

<g transform="translate(0.000000,405.000000) scale(0.100000,-0.100000)"
fill="#000000" stroke="none">
<path d="M2626 3870 c-421 -67 -747 -356 -858 -760 -20 -75 -23 -107 -22 -265
0 -167 2 -187 27 -270 112 -368 386 -633 752 -727 63 -16 116 -21 245 -23 91
-1 173 -5 182 -9 10 -4 20 -17 24 -28 3 -11 66 -379 139 -819 144 -865 143
-858 214 -906 112 -76 254 -41 314 76 30 60 34 115 13 171 -29 78 -326 886
-437 1192 -99 272 -117 331 -109 352 6 18 34 38 92 67 286 144 474 372 555
677 23 85 26 116 26 252 0 135 -3 167 -26 250 -122 451 -503 759 -957 775 -63
2 -142 0 -174 -5z m100 -82 c369 -135 671 -774 624 -1315 -24 -269 -127 -466
-285 -544 -59 -29 -70 -31 -152 -27 -74 3 -99 8 -156 35 -265 125 -483 469
-569 895 -19 94 -23 143 -22 298 1 167 3 195 27 282 86 322 290 466 533 376z"/>
<path d="M163 3795 c96 -26 121 -60 138 -182 15 -118 7 -1506 -10 -1556 -20
-61 -59 -97 -121 -112 -49 -12 -10 -13 330 -13 335 0 378 1 332 13 -31 7 -65
24 -82 40 -55 53 -55 52 -55 895 0 773 0 775 22 822 24 53 57 78 122 94 37 9
-32 12 -339 12 -335 0 -379 -1 -337 -13z"/>
<path d="M1240 3805 c0 -3 15 -11 34 -19 93 -39 77 -169 -39 -326 -27 -36
-147 -185 -267 -333 l-219 -268 62 -117 c35 -64 107 -196 162 -292 229 -405
318 -504 473 -528 65 -11 364 -4 364 8 0 4 -18 20 -41 35 -76 53 -207 234
-397 546 -90 150 -311 530 -341 586 -10 20 0 36 115 175 221 267 418 443 567
507 26 11 47 23 47 26 0 3 -117 5 -260 5 -143 0 -260 -2 -260 -5z"/>
<path d="M3755 3789 c61 -30 93 -67 134 -154 21 -44 175 -457 342 -917 167
-461 308 -838 314 -838 5 0 131 334 279 743 282 775 321 877 377 992 32 65
107 154 154 182 16 9 -28 12 -210 12 l-230 0 51 -23 c59 -27 89 -62 105 -120
14 -51 6 -163 -17 -247 -17 -64 -319 -912 -333 -937 -9 -16 0 -40 -230 614
-93 264 -172 499 -176 522 -14 83 25 141 117 173 53 18 52 18 -332 18 l-385 0
40 -20z"/>
<path d="M5546 3773 c-16 -105 -47 -396 -43 -400 3 -2 30 39 61 91 31 53 84
125 117 161 110 117 203 145 487 145 100 0 182 -2 182 -5 0 -2 -200 -413 -445
-912 -245 -498 -445 -910 -445 -915 0 -7 1269 -12 1271 -5 6 18 64 479 60 482
-2 3 -27 -37 -56 -89 -65 -118 -113 -183 -177 -241 -110 -99 -175 -115 -462
-115 -119 0 -216 2 -216 6 0 3 200 413 445 912 245 499 445 910 445 915 0 4
-274 7 -609 7 l-609 0 -6 -37z"/>
<path d="M7005 3800 c3 -5 13 -10 21 -10 31 0 94 -74 142 -168 28 -53 134
-288 237 -521 l187 -425 -5 -295 c-3 -208 -8 -307 -17 -333 -19 -53 -60 -89
-122 -103 -46 -12 -3 -13 332 -13 333 0 378 1 332 12 -63 16 -88 36 -116 96
-19 42 -21 66 -24 371 l-4 326 132 289 c258 564 339 697 458 756 l47 23 -112
3 c-62 1 -165 1 -230 0 l-118 -3 47 -22 c59 -27 88 -71 88 -132 0 -57 -25
-155 -62 -245 -41 -101 -271 -607 -273 -604 -1 2 -78 179 -171 393 -143 333
-168 399 -172 451 -4 56 -2 64 24 93 18 19 51 40 84 51 l55 19 -383 0 c-253 1
-381 -2 -377 -9z"/>
</g>
</svg>
